<?xml version="1.0" encoding="utf-8"?>
<!-- Generator: Adobe Illustrator 19.0.0, SVG Export Plug-In . SVG Version: 6.00 Build 0)  -->
<svg version="1.1" id="Layer_1" xmlns="http://www.w3.org/2000/svg" xmlns:xlink="http://www.w3.org/1999/xlink" width="15.000000pt" height="15.000000pt" x="0px" y="0px"
	 viewBox="3 42 86 98.3" style="enable-background:new 3 42 86 98.3;" xml:space="preserve">
<style type="text/css">
	.st0{fill-opacity:0;}
	.st1{fill:#FFFFFF;}
	.st2{fill:#CC1020;}
	.st3{fill:#2D8D2D;}
</style>
<rect x="3" y="42.2" class="st0" width="20" height="29"/>
<g>
	<path class="st1" d="M89,71.3c-0.5-12.7-4.5-21.4-4.7-21.8l-1.5-3.1l-3.4,0.5c-4,0.6-7.9,0.9-11.5,0.9c-6.8,0-11.7-1.1-14.6-1.9
		c-2.9-0.9-4.4-1.8-4.6-1.9l-2.5-1.8V42L46,42.1L45.9,42v0.1l-2.5,1.8c-0.2,0.1-1.7,1-4.6,1.9c-2.9,0.9-7.8,1.9-14.6,1.9
		c-3.6,0-7.5-0.3-11.5-0.9l-3.4-0.5l-1.5,3.1c-0.2,0.4-4.1,9-4.7,21.8c-0.3,7.5,0.6,14.8,2.8,21.9c2.7,8.8,6.8,17.5,13.5,24.7
		c5.4,5.8,16.4,15.8,24.1,20.7l2.5,1.6l2.5-1.6c7.7-4.9,19-14.6,24.1-20.7c4.6-5.4,10.9-15.9,13.5-24.7C88.3,86.2,89.3,78.8,89,71.3
		z"/>
	<g>
		<g>
			<path class="st2" d="M52.3,93.2l-26.2,8.2c-3.6,1.1-6.5-1-6.5-4.8v-16c0-3.8,2.9-7.8,6.5-8.9l55-17.3c-0.6-1.8-1.1-2.9-1.1-2.9
				c-23.4,3.4-34-3.7-34-3.7s-10.6,7.1-34,3.7c0,0-15.1,32.1,11,63.4l29.4-9.2V93.2z"/>
		</g>
		<g>
			<path class="st3" d="M36.7,84.9l26.2-8.2c3.6-1.1,6.5,1,6.5,4.8v16.8c0,3.8-2.9,7.8-6.5,8.9l-36.6,11.5
				c5.2,5.5,11.6,10.9,19.7,16c43-27.3,40.2-61.3,36.4-76L36.7,73.1V84.9z"/>
		</g>
	</g>
</g>
</svg>
